<svg xmlns="http://www.w3.org/2000/svg" viewBox="0 0 2048 2048" width="2048" height="2048">
  <path d="M1531,834 L1511,818 L1493,812 L1367,814 L1366,807 L1359,807 L1364,811 L1363,816 L1342,822 L1319,838 L1315,838 L1293,867 L1286,866 L1290,873 L1280,890 L1274,911 L1265,912 L1264,920 L1268,921 L1268,929 L1256,963 L1248,965 L1252,968 L1248,986 L1243,987 L1239,984 L1244,993 L1237,995 L1236,991 L1232,991 L1233,999 L1224,1002 L558,1002 L539,1004 L522,1012 L517,1012 L516,1007 L512,1008 L516,1015 L503,1030 L495,1028 L495,1031 L500,1032 L502,1068 L495,1070 L495,1079 L498,1079 L499,1075 L504,1076 L506,1109 L499,1110 L499,1113 L508,1112 L508,1126 L500,1129 L510,1131 L510,1143 L503,1144 L503,1149 L512,1149 L512,1164 L520,1210 L513,1211 L515,1226 L518,1227 L519,1221 L524,1222 L535,1264 L551,1292 L548,1300 L551,1301 L551,1305 L559,1303 L564,1310 L564,1315 L560,1316 L562,1323 L569,1325 L570,1322 L574,1322 L603,1346 L601,1354 L604,1350 L609,1351 L607,1358 L610,1358 L611,1353 L615,1353 L643,1367 L687,1377 L1128,1377 L1129,1385 L1132,1379 L1138,1380 L1136,1391 L1128,1405 L1117,1414 L1100,1420 L608,1420 L582,1426 L571,1432 L554,1447 L545,1460 L537,1458 L537,1462 L542,1463 L540,1492 L533,1493 L535,1503 L538,1499 L543,1500 L556,1523 L574,1535 L598,1542 L586,1571 L584,1606 L576,1607 L577,1617 L586,1616 L588,1630 L598,1654 L621,1685 L655,1707 L688,1715 L687,1724 L696,1726 L701,1724 L694,1722 L695,1717 L708,1717 L710,1727 L713,1727 L715,1723 L711,1722 L712,1717 L727,1715 L730,1722 L729,1713 L758,1705 L762,1710 L761,1701 L775,1693 L792,1677 L799,1680 L796,1672 L809,1654 L819,1630 L823,1612 L822,1575 L827,1574 L828,1568 L826,1560 L817,1559 L815,1549 L837,1548 L838,1541 L847,1541 L848,1548 L853,1548 L854,1541 L863,1541 L864,1548 L869,1548 L870,1541 L881,1541 L882,1548 L890,1548 L891,1541 L899,1541 L900,1548 L906,1548 L907,1541 L916,1541 L917,1546 L912,1553 L904,1579 L904,1615 L898,1616 L899,1629 L910,1631 L916,1646 L911,1655 L919,1653 L936,1677 L962,1698 L960,1708 L968,1711 L970,1705 L975,1705 L986,1711 L1009,1715 L1009,1724 L1015,1724 L1016,1717 L1027,1717 L1028,1723 L1034,1726 L1031,1722 L1032,1717 L1079,1706 L1102,1689 L1129,1658 L1143,1624 L1143,1567 L1147,1564 L1139,1563 L1131,1542 L1139,1539 L1140,1546 L1151,1544 L1152,1541 L1142,1543 L1142,1537 L1147,1537 L1168,1525 L1172,1525 L1174,1531 L1183,1526 L1176,1526 L1175,1521 L1202,1496 L1209,1497 L1205,1490 L1219,1470 L1231,1436 L1240,1436 L1235,1432 L1237,1417 L1241,1408 L1247,1407 L1243,1404 L1243,1398 L1263,1333 L1271,1331 L1274,1327 L1269,1323 L1269,1314 L1279,1281 L1290,1279 L1290,1274 L1284,1274 L1283,1269 L1297,1225 L1302,1224 L1303,1228 L1306,1228 L1306,1223 L1300,1222 L1301,1213 L1327,1131 L1337,1129 L1339,1125 L1332,1124 L1331,1119 L1349,1063 L1359,1061 L1353,1058 L1353,1050 L1357,1038 L1366,1036 L1361,1033 L1361,1025 L1381,968 L1393,952 L1397,952 L1398,955 L1404,953 L1399,950 L1400,945 L1420,935 L1445,933 L1446,939 L1450,939 L1451,933 L1462,933 L1463,941 L1478,942 L1482,941 L1483,933 L1488,934 L1488,940 L1501,938 L1499,931 L1523,917 L1541,891 L1543,858 Z M725,1591 L730,1592 L729,1600 L724,1599 Z M1020,1569 L1036,1571 L1046,1579 L1046,1583 L1040,1586 L1044,1598 L1040,1608 L1044,1607 L1045,1598 L1052,1599 L1048,1613 L1033,1624 L1028,1624 L1027,1618 L1024,1618 L1023,1624 L1013,1622 L1001,1611 L997,1601 L997,1593 L1003,1580 L1010,1573 Z M688,1573 L708,1569 L717,1573 L728,1584 L727,1589 L721,1589 L719,1607 L722,1615 L715,1622 L711,1622 L710,1616 L706,1616 L703,1624 L695,1624 L682,1616 L681,1610 L677,1608 L677,1601 L683,1600 L683,1597 L676,1596 L677,1585 Z M819,1100 L824,1101 L823,1111 L818,1110 Z M659,1082 L664,1083 L664,1088 L667,1084 L674,1087 L675,1083 L680,1083 L688,1096 L688,1266 L686,1275 L676,1284 L663,1284 L655,1280 L651,1274 L649,1260 L649,1097 L651,1090 Z M1068,1081 L1072,1081 L1073,1084 L1076,1081 L1084,1081 L1094,1093 L1094,1109 L1088,1110 L1088,1120 L1094,1121 L1093,1126 L1088,1126 L1088,1131 L1093,1131 L1094,1137 L1088,1138 L1087,1141 L1088,1174 L1094,1175 L1094,1185 L1087,1186 L1087,1210 L1094,1211 L1094,1232 L1087,1233 L1087,1244 L1094,1245 L1094,1261 L1088,1262 L1088,1265 L1092,1266 L1092,1275 L1082,1284 L1067,1284 L1057,1275 L1055,1268 L1055,1097 L1059,1088 Z M928,1081 L933,1081 L936,1088 L939,1088 L940,1082 L947,1083 L954,1090 L958,1100 L958,1129 L952,1130 L952,1133 L958,1134 L958,1266 L952,1267 L949,1264 L948,1270 L954,1270 L955,1275 L946,1284 L931,1284 L924,1280 L921,1271 L927,1270 L927,1267 L920,1267 L917,1263 L917,1099 L919,1090 Z M795,1081 L812,1081 L820,1088 L815,1101 L815,1130 L824,1131 L824,1141 L816,1142 L815,1163 L824,1164 L823,1174 L815,1171 L815,1178 L824,1179 L823,1185 L815,1185 L815,1194 L824,1195 L824,1203 L815,1204 L816,1215 L824,1216 L824,1229 L815,1230 L815,1244 L818,1244 L819,1237 L824,1238 L824,1264 L820,1277 L811,1284 L795,1284 L787,1279 L783,1270 L783,1096 L787,1087 Z M1201,345 L1170,318 L1149,304 L1134,304 L1130,310 L1126,345 L1111,391 L1104,390 L1108,393 L1108,401 L1102,412 L1094,410 L1094,413 L1100,414 L1098,423 L1092,425 L1088,422 L1088,425 L1094,426 L1094,431 L1083,431 L1082,436 L1077,435 L1075,428 L1065,416 L1037,396 L1007,382 L988,378 L986,372 L989,369 L986,369 L985,376 L970,372 L939,368 L938,361 L934,361 L933,368 L913,368 L912,361 L909,361 L908,368 L882,370 L866,376 L861,375 L861,369 L850,372 L849,382 L833,389 L826,385 L826,394 L821,394 L820,389 L817,389 L820,397 L797,414 L758,457 L734,500 L724,527 L716,528 L720,531 L720,539 L712,540 L716,543 L716,550 L704,592 L696,649 L693,656 L688,656 L694,659 L680,739 L675,740 L671,737 L671,744 L676,745 L676,753 L662,793 L650,815 L639,827 L645,834 L645,838 L641,839 L641,846 L647,846 L648,840 L653,839 L674,849 L675,854 L672,857 L675,861 L679,861 L680,854 L705,861 L706,867 L703,870 L707,873 L710,870 L706,869 L706,864 L711,863 L719,866 L720,875 L729,877 L730,871 L739,871 L771,879 L772,884 L768,885 L768,888 L773,888 L774,881 L789,883 L790,888 L784,891 L790,893 L792,885 L808,887 L808,896 L811,889 L863,895 L864,904 L867,904 L868,897 L929,900 L930,908 L937,908 L933,905 L934,900 L959,899 L962,908 L963,899 L984,897 L985,904 L988,904 L990,895 L1006,893 L1024,885 L1030,885 L1031,890 L1035,890 L1031,882 L1039,876 L1037,866 L1031,866 L1016,858 L1017,849 L1006,852 L991,839 L981,825 L975,807 L975,777 L983,752 L995,732 L1023,707 L1057,695 L1063,696 L1063,703 L1069,702 L1070,695 L1075,695 L1076,702 L1091,704 L1093,699 L1100,699 L1123,712 L1122,717 L1116,717 L1111,711 L1111,719 L1123,720 L1124,716 L1128,716 L1138,726 L1145,738 L1145,742 L1139,743 L1139,746 L1147,744 L1150,753 L1148,796 L1145,802 L1137,800 L1135,805 L1142,808 L1138,823 L1151,835 L1176,825 L1218,778 L1225,779 L1222,772 L1241,738 L1251,702 L1260,703 L1253,700 L1259,658 L1257,622 L1264,621 L1264,614 L1261,614 L1260,618 L1255,617 L1253,602 L1243,575 L1222,543 L1225,535 L1218,538 L1203,523 L1205,514 L1197,518 L1185,508 L1161,496 L1162,487 L1159,486 L1159,482 L1143,481 L1142,486 L1137,486 L1136,476 L1130,474 L1131,468 L1149,448 L1211,363 L1211,357 Z" fill="#FFFFFF" fill-rule="evenodd"/>
</svg>
