<svg xmlns="http://www.w3.org/2000/svg" viewBox="0 0 2048 2048">
<path d="M 1019 1173 1003 1179 970 1201 962 1197 946 1206 946 1215 943 1218 936 1218 914 1232 904 1246 894 1267 890 1285 890 1317 896 1340 906 1360 926 1383 940 1393 966 1405 987 1411 1012 1414 1049 1413 1075 1407 1103 1395 1122 1381 1135 1368 1147 1351 1155 1333 1159 1311 1155 1308 1155 1299 1159 1296 1159 1289 1153 1263 1145 1246 1121 1218 1094 1201 1086 1205 1082 1204 1057 1185 1041 1176 Z M 745 816 713 816 700 820 680 830 662 844 644 866 632 887 622 914 620 931 618 933 618 940 620 942 620 946 616 952 616 978 619 983 618 997 620 999 624 1022 632 1043 641 1059 656 1077 673 1088 692 1095 723 1095 736 1091 763 1075 781 1055 791 1039 803 1013 813 975 812 964 815 961 815 945 811 942 811 933 815 930 815 918 811 894 803 870 791 848 774 830 757 820 Z M 1301 816 1276 828 1260 844 1250 860 1250 866 1244 874 1236 910 1236 953 1239 956 1238 968 1242 987 1260 1033 1274 1055 1288 1071 1308 1085 1327 1093 1336 1095 1348 1095 1352 1093 1364 1095 1377 1091 1398 1079 1401 1073 1409 1068 1425 1039 1435 997 1435 961 1432 956 1433 944 1431 942 1429 925 1413 883 1397 858 1381 840 1365 828 1337 816 1321 814 Z M 470 934 438 1071 444 1195 464 1246 492 1284 538 1317 582 1333 661 1333 731 1305 780 1267 907 1129 1000 1085 1054 1087 1113 1111 1178 1165 1281 1283 1338 1319 1392 1335 1474 1331 1538 1301 1585 1247 1607 1188 1611 1098 1591 983 1559 895 1505 802 1447 736 1381 684 1283 632 1171 596 1070 582 941 586 827 610 739 644 656 692 572 765 512 845 Z M 1298 759 1331 757 1365 765 1400 783 1432 811 1454 838 1476 875 1496 926 1506 968 1510 1004 1508 1065 1500 1101 1486 1137 1466 1168 1438 1196 1407 1214 1376 1222 1349 1222 1307 1210 1277 1192 1247 1163 1225 1133 1207 1099 1193 1062 1183 1021 1177 941 1183 896 1197 851 1219 813 1245 785 1274 767 Z M 737 757 775 767 799 781 824 805 844 835 858 867 870 913 874 948 872 1002 862 1052 850 1089 826 1137 808 1162 781 1189 749 1210 709 1222 683 1222 652 1214 628 1202 593 1170 573 1140 557 1101 547 1057 547 966 557 920 571 883 587 853 615 816 643 789 675 769 707 759 Z M 1260 418 1259 422 1296 458 1333 433 1372 423 1410 425 1438 433 1464 445 1506 475 1530 501 1544 522 1554 544 1560 567 1560 616 1607 627 1611 625 1612 589 1609 565 1603 543 1585 503 1567 476 1539 444 1508 418 1477 398 1447 384 1415 374 1390 370 1361 370 1337 374 1304 386 1286 396 Z M 785 424 765 404 741 388 713 376 682 370 658 370 622 376 589 388 558 404 522 430 500 451 480 474 462 501 446 536 438 565 435 594 438 627 491 615 489 571 493 551 503 526 531 488 553 467 584 445 606 434 635 425 678 423 712 433 751 458 Z" fill="#828384" fill-rule="evenodd"/>
<path d="M 961 1180 927 1198 891 1230 862 1281 856 1313 858 1344 880 1387 906 1409 938 1425 1005 1440 1049 1439 1095 1429 1155 1397 1177 1371 1189 1339 1189 1296 1179 1263 1163 1236 1131 1204 1089 1180 1052 1168 1032 1170 1055 1180 1068 1192 1092 1196 1106 1205 1147 1245 1161 1284 1160 1319 1152 1347 1136 1368 1099 1400 1029 1418 952 1403 909 1370 895 1347 885 1310 887 1281 897 1251 911 1231 942 1205 973 1189 981 1193 1017 1170 1001 1168 Z M 1312 446 1309 452 1295 461 1268 504 1258 544 1260 553 1264 551 1265 541 1277 515 1295 489 1313 471 1339 453 1376 443 1396 443 1403 447 1407 445 1456 463 1490 487 1514 513 1536 554 1542 602 1538 628 1524 662 1508 684 1491 698 1490 704 1494 705 1509 697 1539 665 1541 657 1547 651 1547 643 1553 635 1559 613 1560 578 1557 557 1547 530 1529 501 1506 476 1483 458 1445 437 1410 426 1358 426 1338 432 Z M 706 433 677 424 648 424 626 428 574 452 548 472 524 497 504 526 494 551 490 571 490 605 496 626 500 629 506 650 518 673 536 691 563 707 565 704 537 676 519 645 509 609 509 575 519 542 541 507 575 475 602 458 642 445 682 445 716 457 750 487 770 516 778 535 780 552 784 553 786 544 783 524 771 492 750 460 Z" fill="#a3a4a5" fill-rule="evenodd"/>
<path d="M 1302 760 1276 768 1246 786 1222 811 1209 831 1207 846 1198 853 1188 882 1180 934 1184 937 1184 956 1179 960 1184 1017 1194 1060 1212 1106 1228 1135 1254 1169 1278 1191 1319 1213 1358 1221 1384 1219 1418 1207 1449 1185 1471 1159 1489 1127 1507 1060 1509 1017 1505 972 1493 922 1477 881 1461 851 1433 814 1399 784 1386 777 1381 779 1369 774 1363 766 1341 760 1332 763 1325 759 Z M 1308 772 1341 772 1371 782 1397 799 1420 820 1444 851 1467 893 1488 962 1494 1011 1493 1050 1488 1082 1477 1117 1456 1154 1437 1175 1412 1193 1385 1203 1354 1205 1324 1199 1289 1180 1262 1155 1241 1127 1224 1096 1208 1054 1198 1012 1193 965 1194 926 1198 899 1214 850 1232 819 1253 798 1277 782 Z M 746 760 700 762 658 780 622 810 598 848 609 847 661 789 724 771 778 784 825 832 853 908 856 994 833 1088 792 1155 750 1190 706 1205 654 1197 623 1177 582 1121 561 1037 568 940 597 859 586 858 568 894 550 958 548 1052 568 1126 611 1187 636 1205 674 1219 703 1221 738 1213 771 1195 803 1166 845 1097 869 1012 871 930 849 849 808 790 Z M 1487 488 1424 452 1363 448 1313 474 1266 537 1267 504 1293 458 1257 427 1197 568 1065 550 845 567 785 430 752 460 778 532 737 476 684 448 625 452 552 498 520 546 512 599 553 695 515 670 493 618 442 630 476 700 536 753 448 914 411 1107 440 1279 529 1425 598 1481 701 1527 982 1569 1138 1565 1308 1537 1429 1491 1511 1433 1607 1287 1633 1194 1638 1106 1597 912 1509 753 1575 697 1606 630 1558 619 1533 675 1494 699 1529 645 1538 586 1521 529 Z M 956 1181 1001 1167 1052 1167 1106 1187 1131 1203 1152 1222 1166 1239 1180 1263 1188 1286 1191 1308 1190 1339 1186 1354 1172 1380 1157 1396 1128 1416 1081 1434 1049 1440 1005 1441 980 1438 937 1426 906 1410 875 1382 863 1363 855 1329 857 1297 867 1266 883 1239 909 1211 930 1195 Z M 470 928 513 839 575 759 658 689 743 640 834 605 958 581 1076 579 1171 593 1279 628 1369 675 1432 721 1504 797 1554 879 1593 982 1612 1091 1606 1199 1574 1266 1521 1314 1458 1336 1388 1336 1336 1320 1285 1288 1170 1158 1123 1119 1059 1090 1005 1086 962 1098 903 1134 804 1244 729 1308 653 1336 580 1334 501 1294 467 1254 444 1203 434 1094 Z" fill="#bebfbf" fill-rule="evenodd"/>
<path d="M 1303 778 1278 787 1253 804 1232 829 1219 852 1208 881 1200 918 1198 967 1202 1007 1208 1036 1224 1084 1246 1126 1270 1157 1297 1180 1322 1193 1343 1199 1379 1199 1405 1191 1429 1176 1447 1158 1469 1123 1479 1097 1487 1061 1489 1010 1485 973 1475 929 1459 887 1443 858 1419 826 1388 798 1358 782 1331 776 Z M 1301 814 1312 812 1337 814 1362 824 1379 836 1397 855 1413 879 1425 906 1433 933 1437 960 1437 998 1433 1021 1423 1049 1412 1067 1396 1083 1383 1091 1365 1097 1335 1097 1307 1087 1288 1073 1272 1055 1260 1037 1246 1006 1238 979 1234 954 1234 909 1242 874 1250 856 1260 841 1280 823 Z M 748 778 722 776 694 782 662 799 636 821 612 851 590 891 578 923 568 967 566 1040 574 1083 588 1121 602 1146 622 1170 645 1187 677 1199 712 1199 733 1193 762 1177 789 1152 813 1118 825 1094 839 1056 847 1022 853 951 847 903 836 866 809 817 778 790 Z M 745 814 760 819 773 827 790 844 803 865 811 886 817 916 818 940 815 976 805 1013 791 1043 780 1059 763 1077 749 1087 723 1097 691 1097 676 1092 658 1081 642 1064 628 1039 618 1008 614 980 614 950 618 922 624 901 638 872 654 850 671 834 694 820 713 814 Z M 497 443 440 528 424 609 443 680 501 748 505 773 425 949 400 1143 411 1231 442 1323 526 1443 612 1506 749 1556 934 1582 1069 1584 1226 1570 1363 1536 1464 1488 1546 1420 1620 1298 1645 1196 1649 1101 1617 932 1541 773 1545 748 1607 674 1621 575 1588 491 1514 410 1397 363 1303 378 1242 426 1196 533 1168 551 1045 538 865 549 792 420 752 385 690 363 592 378 Z M 516 433 622 374 683 368 727 379 802 444 844 565 1011 546 1201 565 1221 480 1247 432 1292 390 1346 370 1442 380 1536 439 1595 518 1614 614 1578 699 1511 749 1600 908 1642 1094 1622 1258 1539 1410 1463 1476 1371 1522 1216 1560 1051 1574 894 1568 730 1540 612 1494 545 1446 491 1385 447 1307 407 1140 413 1034 435 940 479 834 534 749 463 689 433 607 454 512 Z" fill="#fdfdfd" fill-rule="evenodd"/>
</svg>
